# xmcd CD database file
#
# Track frame offsets:
#	150
#	20397
#	41093
#	58384
#
# Disc length: 1045 seconds
#
# Revision: 5
# Processed by: cddbd v1.5.2PL0 Copyright (c) Steve Scherf et al.
# Submitted via: CDex 1.70beta3
#
DISCID=32041304
DTITLE=CooRie - TVアニメ『光と水のダフネ』エンディングテーマ　あなたと言う時間
DYEAR=2004
DGENRE=Anime(J)
TTITLE0=CooRie/あなたと言う時間
TTITLE1=中原麻衣/左胸のポケットに
TTITLE2=中原麻衣/七色の言葉
TTITLE3=rino/あなたと言う時間 (off vocal)
EXTD=YEAR: 2004
EXTT0=
EXTT1=
EXTT2=
EXTT3=
PLAYORDER=
